Coordinates
version=1
nRows=14
nColumns=38
inDegrees=no

Units are S.I. units (second, meters, Newtons, ...)
If the header above contains a line with 'inDegrees', this indicates whether rotational values are in degrees (yes) or radians (no).

endheader
time	pelvis_tilt	pelvis_list	pelvis_rotation	pelvis_tx	pelvis_ty	pelvis_tz	hip_flexion_r	hip_adduction_r	hip_rotation_r	knee_angle_r	ankle_angle_r	subtalar_angle_r	mtp_angle_r	hip_flexion_l	hip_adduction_l	hip_rotation_l	knee_angle_l	ankle_angle_l	subtalar_angle_l	mtp_angle_l	lumbar_extension	lumbar_bending	lumbar_rotation	arm_flex_r	arm_add_r	arm_rot_r	elbow_flex_r	pro_sup_r	wrist_flex_r	wrist_dev_r	arm_flex_l	arm_add_l	arm_rot_l	elbow_flex_l	pro_sup_l	wrist_flex_l	wrist_dev_l
0.48	0.115141	1.30549	-1.74112	0.669846	0.652432	0.952514	-0.31986	0.0293586	-0.188112	0.138782	0.0733971	0	0	0.352664	-0.154055	-0.186237	1.0968	0.0952196	0	0	-0.263104	-0.0424584	0.161233	0.282527	-0.171236	-0.507273	1.63808	0	0	0	0.383667	-0.340319	0.146427	1.61912	0	0	0
0.49	0.117006	1.30827	-1.748	0.669648	0.642123	0.952123	-0.333456	0.028535	-0.182456	0.129994	0.0749595	0	0	0.355004	-0.154902	-0.206111	1.04137	0.100126	0	0	-0.261673	-0.0442776	0.165164	0.285105	-0.170459	-0.508562	1.6404	0	0	0	0.383715	-0.340302	0.144711	1.6228	0	0	0
0.5	0.120016	1.31164	-1.75505	0.669646	0.631704	0.95144	-0.347174	0.0276456	-0.17756	0.119621	0.0780516	0	0	0.355217	-0.15429	-0.226732	0.980886	0.103775	0	0	-0.259422	-0.0460832	0.168511	0.28722	-0.170493	-0.509107	1.64261	0	0	0	0.384007	-0.339828	0.142902	1.62626	0	0	0
0.51	0.125571	1.315	-1.76348	0.669863	0.621177	0.950529	-0.361679	0.026281	-0.172646	0.10801	0.0802331	0	0	0.352847	-0.151331	-0.247982	0.915422	0.106593	0	0	-0.256854	-0.0483282	0.170952	0.288843	-0.170453	-0.509963	1.64473	0	0	0	0.384636	-0.339272	0.141561	1.62945	0	0	0
0.52	0.132396	1.3187	-1.77218	0.670289	0.610612	0.949379	-0.375952	0.0247476	-0.167119	0.0972192	0.0854774	0	0	0.348704	-0.146277	-0.269456	0.845634	0.108622	0	0	-0.25378	-0.0505837	0.172679	0.290187	-0.170002	-0.511778	1.64701	0	0	0	0.385685	-0.33851	0.140592	1.63222	0	0	0
0.53	0.139841	1.32359	-1.78042	0.670986	0.600055	0.947914	-0.38772	0.0230454	-0.163425	0.0895751	0.0949144	0	0	0.344156	-0.139206	-0.290804	0.771998	0.110479	0	0	-0.249385	-0.0522832	0.173386	0.291305	-0.169077	-0.514337	1.64974	0	0	0	0.386831	-0.337458	0.139704	1.63449	0	0	0
0.54	0.147641	1.32948	-1.78777	0.671957	0.589449	0.946149	-0.397879	0.0213965	-0.161782	0.082723	0.102531	0	0	0.33907	-0.130108	-0.311475	0.695272	0.112236	0	0	-0.243898	-0.0532846	0.173142	0.292102	-0.169195	-0.516156	1.65157	0	0	0	0.388331	-0.336482	0.139665	1.63621	0	0	0
0.55	0.157575	1.33577	-1.79634	0.673219	0.578817	0.944173	-0.406609	0.0189876	-0.16194	0.0775834	0.109217	0	0	0.332666	-0.118039	-0.330436	0.615696	0.1138	0	0	-0.237888	-0.0541659	0.172199	0.292916	-0.169771	-0.518088	1.65246	0	0	0	0.39031	-0.335229	0.14008	1.63715	0	0	0
0.56	0.170892	1.34143	-1.80699	0.674828	0.568084	0.942152	-0.416767	0.0159904	-0.162272	0.0713317	0.114437	0	0	0.322944	-0.101638	-0.344893	0.531781	0.1135	0	0	-0.232115	-0.0553616	0.170045	0.29404	-0.170511	-0.520085	1.65306	0	0	0	0.392555	-0.333586	0.140526	1.63729	0	0	0
0.57	0.183725	1.34857	-1.81589	0.676749	0.557276	0.939835	-0.424053	0.0135406	-0.165283	0.0686165	0.122016	0	0	0.313548	-0.0833913	-0.353806	0.447522	0.114338	0	0	-0.224365	-0.0553585	0.166515	0.295185	-0.171018	-0.522372	1.65262	0	0	0	0.394401	-0.331913	0.140912	1.63671	0	0	0
0.58	0.196566	1.35606	-1.82453	0.67887	0.546372	0.937386	-0.430571	0.0110243	-0.16806	0.0672202	0.131661	0	0	0.302183	-0.0631298	-0.356032	0.362034	0.114677	0	0	-0.21575	-0.054763	0.162653	0.296226	-0.171803	-0.524236	1.65085	0	0	0	0.395986	-0.330233	0.141675	1.63522	0	0	0
0.59	0.209401	1.36319	-1.83293	0.681157	0.535304	0.9349	-0.437185	0.00832281	-0.171896	0.0672014	0.14163	0	0	0.288002	-0.0413988	-0.350321	0.276647	0.112069	0	0	-0.206912	-0.0537871	0.158163	0.297467	-0.172035	-0.525952	1.64844	0	0	0	0.397025	-0.328574	0.142117	1.63287	0	0	0
0.6	0.223295	1.36983	-1.84245	0.683465	0.523998	0.932388	-0.443587	0.00503039	-0.176842	0.0693735	0.152039	0	0	0.27035	-0.0188341	-0.333202	0.191769	0.103902	0	0	-0.197993	-0.0530906	0.153633	0.298285	-0.17216	-0.527277	1.64492	0	0	0	0.397843	-0.327336	0.142757	1.63005	0	0	0
0.61	0.235051	1.37541	-1.85064	0.685683	0.51238	0.929899	-0.450709	0.00153819	-0.18158	0.0730265	0.162411	0	0	0.249897	0.00199221	-0.308836	0.112298	0.0891656	0	0	-0.18951	-0.0524639	0.149774	0.298484	-0.171014	-0.52977	1.64061	0	0	0	0.398405	-0.326519	0.143415	1.62732	0	0	0
